<?xml version="1.0" encoding="utf-8"?>
<?xml-stylesheet type="text/xsl" href="rss1.xsl"?>
<rss version="2.0" xmlns:atom="http://www.w3.org/2005/Atom" xmlns:content="http://purl.org/rss/1.0/modules/content/" xmlns:dc="http://purl.org/dc/elements/1.1/" xmlns:media="http://search.yahoo.com/mrss/">
<channel>
 <title>Getty</title>
 <link>http://www.gettyimg.com/</link>
 <atom:link href="http://www.gettyimg.com/" rel="self" type="application/rss+xml" />

 
                <item>
                <title><![CDATA[【Cinema Center】CLIP - Trailer..Agatha.All.Along..Season.1.2024.1080p.DSNP.WEB-DL.DDP5.1.Atmos.H.264-Samuel]]></title>
                <link><![CDATA[https://sharemania.us/threads/trailer-agatha-all-along-season-1-2024-1080p-dsnp-web-dl-ddp5-1-atmos-h-264-samuel.249762/]]></link>
                <description><![CDATA[<article>
<blockquote class="messageText SelectQuoteContainer ugc baseHtml">
<div style="text-align: center"><b><span style="font-size: 26px">Agatha All Along</span></b><br>
<b><span style="font-size: 22px">Trailer</span></b><br>
<img src="https://i.imgur.com/dhv9GP3.jpeg" class="bbCodeImage LbImage" alt="[​IMG]" data-url="https://i.imgur.com/dhv9GP3.jpeg" style=""><br>
<b><a href="https://i.imgur.com/p5idg1v.jpeg" target="_blank" class="externalLink" rel="nofollow">Alternate Artwork 1</a></b> | <b><a href="https://i.imgur.com/NhmcIIN.jpeg" target="_blank" class="externalLink" rel="nofollow">Alternate Artwork 2</a></b> | <b><a href="https://i.imgur.com/BJKJYjq.jpeg" target="_blank" class="externalLink" rel="nofollow">Poster</a></b><br>
<br>
<img src="https://i.imgur.com/GB5ka1Y.png" class="bbCodeImage LbImage" alt="[​IMG]" data-url="https://i.imgur.com/GB5ka1Y.png" style=""> <img src="https://i.imgur.com/ckHEWYh.png" class="bbCodeImage LbImage" alt="[​IMG]" data-url="https://i.imgur.com/ckHEWYh.png" style=""> <img src="https://i.imgur.com/wGbLQp4.png" class="bbCodeImage LbImage" alt="[​IMG]" data-url="https://i.imgur.com/wGbLQp4.png" style=""> <img src="https://i.imgur.com/p2a3QKq.png" class="bbCodeImage LbImage" alt="[​IMG]" data-url="https://i.imgur.com/p2a3QKq.png" style=""><br>
2024 • 1 Season<br>
Fantasy<br>
<br>
<div class="bbCodeBlock bbCodeQuote">
<aside>
<blockquote class="quoteContainer"><div class="quote"><b><span style="font-size: 15px"><span style="font-family: 'Arial'">Description</span></span></b><br>
The infamous Agatha Harkness finds herself powerless after a suspicious goth Teen breaks her free from a distorted spell. Her interest is piqued when he begs her to take him on the legendary Witches’ Road, a magical gauntlet of trials that, if survived, rewards witches with what they need. Together, Agatha and the Teen pull together a desperate coven, and set off down, down, down The Road...</div><div class="quoteExpand">Click to expand...</div></blockquote>
</aside>
</div>
<div class="bbCodeBlock bbCodeQuote">
<aside>
<blockquote class="quoteContainer"><div class="quote"><b><span style="font-size: 15px"><span style="font-family: 'Arial'">Trailers</span></span></b><br>
<span data-s9e-mediaembed="googledrive" style="display:inline-block;width:100%;max-width:640px"><span style="display:block;overflow:hidden;position:relative;padding-bottom:75%"><iframe allowfullscreen="" loading="lazy" scrolling="no" src="//drive.google.com/file/d/1KA6FTYHTdnIxuQxfDOGei8CLWGgLa4lD/preview" style="border:0;height:100%;left:0;position:absolute;width:100%"></iframe></span></span><br>
<b>Trailer | Agatha All Along | Season 1</b><br>
View a promo of this release</div><div class="quoteExpand quoteCut">Click to expand...</div></blockquote>
</aside>
</div>
<div class="bbCodeBlock bbCodeQuote">
<aside>
<blockquote class="quoteContainer"><div class="quote"><b><span style="font-size: 15px"><span style="font-family: 'Arial'">More Information</span></span></b><br>
<b>Long Description:</b><br>
The infamous Agatha Harkness finds herself down and out of power after a suspicious goth Teen helps break her free from a distorted spell. Her interest is piqued when he begs her to take him on the legendary Witches’ Road, a magical gauntlet of trials that, if survived, rewards a witch with what they’re missing. Together, Agatha and this mysterious Teen pull together a desperate coven, and set off down, down, down The Road…<br>
<b>Duration:</b> 2m<br>
<b>Release Date:</b> 2024<br>
<b>Genre:</b> Fantasy<br>
<b>Rating:</b> <img src="https://i.imgur.com/GB5ka1Y.png" class="bbCodeImage LbImage" alt="[​IMG]" data-url="https://i.imgur.com/GB5ka1Y.png" style=""><br>
<b>Available in the following formats:</b> <img src="https://i.imgur.com/ckHEWYh.png" class="bbCodeImage LbImage" alt="[​IMG]" data-url="https://i.imgur.com/ckHEWYh.png" style=""> <img src="https://i.imgur.com/ZfL5Qvq.png" class="bbCodeImage LbImage" alt="[​IMG]" data-url="https://i.imgur.com/ZfL5Qvq.png" style=""> <img src="https://i.imgur.com/gx1o7rO.png" class="bbCodeImage LbImage" alt="[​IMG]" data-url="https://i.imgur.com/gx1o7rO.png" style=""> <img src="https://i.imgur.com/wGbLQp4.png" class="bbCodeImage LbImage" alt="[​IMG]" data-url="https://i.imgur.com/wGbLQp4.png" style=""> <img src="https://i.imgur.com/p2a3QKq.png" class="bbCodeImage LbImage" alt="[​IMG]" data-url="https://i.imgur.com/p2a3QKq.png" style=""><br>
<b>Starring:</b> Kathryn Hahn, Joe Locke, Sasheer Zamata, Ali Ahn, Patti LuPone, Aubrey Plaza</div><div class="quoteExpand quoteCut">Click to expand...</div></blockquote>
</aside>
</div>
<div class="bbCodeBlock bbCodeQuote">
<aside>
<blockquote class="quoteContainer"><div class="quote"><b><span style="font-size: 15px">Source</span></b><br>
<img src="https://i.imgur.com/I198e8q.png" class="bbCodeImage LbImage" alt="[​IMG]" data-url="https://i.imgur.com/I198e8q.png" style=""></div><div class="quoteExpand">Click to expand...</div></blockquote>
</aside>
</div>
<div class="bbCodeBlock bbCodeQuote">
<aside>
<blockquote class="quoteContainer"><div class="quote"><b><span style="font-size: 15px">Release Name</span></b><br>
Trailer..Agatha.All.Along..Season.1.2024.1080p.DSNP.WEB-DL.DDP5.1.Atmos.H.264-Samuel</div><div class="quoteExpand">Click to expand...</div></blockquote>
</aside>
</div>
<div class="ToggleTriggerAnchor bbCodeSpoilerContainer">
<button type="button" class="button bbCodeSpoilerButton ToggleTrigger Tooltip JsOnly" data-target="> .SpoilerTarget"><span>Spoiler: <span class="SpoilerTitle">Media Information</span></span></button>
<div class="SpoilerTarget bbCodeSpoilerText">General<br>
Complete name : Trailer..Agatha.All.Along..Season.1.2024.1080p.DSNP.WEB-DL.DDP5.1.Atmos.H.264-Samuel.mkv<br>
Format : Matroska<br>
Format version : Version 4<br>
File size : 178 MiB<br>
Duration : 2 min 18 s<br>
Overall bit rate mode : Variable<br>
Overall bit rate : 10.8 Mb/s<br>
Frame rate : 23.976 FPS<br>
Encoded date : 2024-07-09 20:14:16 UTC<br>
Writing application : mkvmerge v85.0 ('Shame For You') 64-bit<br>
Writing library : libebml v1.4.5 + libmatroska v1.7.1<br>
<br>
Video<br>
ID : 1<br>
Format : AVC<br>
Format/Info : Advanced Video Codec<br>
Format profile : High@L4<br>
Format settings : CABAC / 4 Ref Frames<br>
Format settings, CABAC : Yes<br>
Format settings, Reference frames : 4 frames<br>
Codec ID : V_MPEG4/ISO/AVC<br>
Duration : 2 min 18 s<br>
Bit rate mode : Variable<br>
Bit rate : 6 794 kb/s<br>
Maximum bit rate : 12.7 Mb/s<br>
Width : 1 920 pixels<br>
Height : 1 080 pixels<br>
Display aspect ratio : 16:9<br>
Frame rate mode : Constant<br>
Frame rate : 23.976 (24000/1001) FPS<br>
Color space : YUV<br>
Chroma subsampling : 4:2:0<br>
Bit depth : 8 bits<br>
Scan type : Progressive<br>
Bits/(Pixel*Frame) : 0.137<br>
Time code of first frame : 00:00:00;00<br>
Stream size : 112 MiB (63%)<br>
Default : Yes<br>
Forced : No<br>
Color range : Limited<br>
Color primaries : BT.709<br>
Transfer characteristics : BT.709<br>
Matrix coefficients : BT.709<br>
<br>
Audio #1<br>
ID : 2<br>
Format : E-AC-3 JOC<br>
Format/Info : Enhanced AC-3 with Joint Object Coding<br>
Commercial name : Dolby Digital Plus with Dolby Atmos<br>
Codec ID : A_EAC3<br>
Duration : 2 min 18 s<br>
Bit rate mode : Constant<br>
Bit rate : 768 kb/s<br>
Channel(s) : 6 channels<br>
Channel layout : L R C LFE Ls Rs<br>
Sampling rate : 48.0 kHz<br>
Frame rate : 31.250 FPS (1536 SPF)<br>
Compression mode : Lossy<br>
Stream size : 12.7 MiB (7%)<br>
Language : English<br>
Service kind : Complete Main<br>
Default : Yes<br>
Forced : No<br>
Complexity index : 16<br>
Number of dynamic objects : 15<br>
Bed channel count : 1 channel<br>
Bed channel configuration : LFE<br>
Dialog Normalization : -29 dB<br>
compr : -0.28 dB<br>
dmixmod : Lo/Ro<br>
ltrtcmixlev : -3.0 dB<br>
ltrtsurmixlev : -4.5 dB<br>
lorocmixlev : -3.0 dB<br>
lorosurmixlev : -4.5 dB<br>
dialnorm_Average : -29 dB<br>
dialnorm_Minimum : -29 dB<br>
dialnorm_Maximum : -29 dB<br>
<br>
Audio #2<br>
ID : 3<br>
Format : AAC LC<br>
Format/Info : Advanced Audio Codec Low Complexity<br>
Codec ID : A_AAC-2<br>
Duration : 2 min 18 s<br>
Bit rate : 125 kb/s<br>
Channel(s) : 2 channels<br>
Channel layout : L R<br>
Sampling rate : 48.0 kHz<br>
Frame rate : 46.875 FPS (1024 SPF)<br>
Compression mode : Lossy<br>
Stream size : 2.08 MiB (1%)<br>
Title : Audio Description<br>
Language : English<br>
Default : No<br>
Forced : No<br>
<br>
Audio #3<br>
ID : 4<br>
Format : E-AC-3<br>
Format/Info : Enhanced AC-3<br>
Commercial name : Dolby Digital Plus<br>
Codec ID : A_EAC3<br>
Duration : 2 min 18 s<br>
Bit rate mode : Constant<br>
Bit rate : 256 kb/s<br>
Channel(s) : 6 channels<br>
Channel layout : L R C LFE Ls Rs<br>
Sampling rate : 48.0 kHz<br>
Frame rate : 31.250 FPS (1536 SPF)<br>
Compression mode : Lossy<br>
Stream size : 4.24 MiB (2%)<br>
Language : Czech<br>
Service kind : Complete Main<br>
Default : No<br>
Forced : No<br>
Dialog Normalization : -27 dB<br>
compr : -0.28 dB<br>
mixlevel : 105 dB<br>
roomtyp : Small<br>
dialnorm_Average : -27 dB<br>
dialnorm_Minimum : -27 dB<br>
dialnorm_Maximum : -27 dB<br>
<br>
Audio #4<br>
ID : 5<br>
Format : E-AC-3<br>
Format/Info : Enhanced AC-3<br>
Commercial name : Dolby Digital Plus<br>
Codec ID : A_EAC3<br>
Duration : 2 min 18 s<br>
Bit rate mode : Constant<br>
Bit rate : 256 kb/s<br>
Channel(s) : 6 channels<br>
Channel layout : L R C LFE Ls Rs<br>
Sampling rate : 48.0 kHz<br>
Frame rate : 31.250 FPS (1536 SPF)<br>
Compression mode : Lossy<br>
Stream size : 4.24 MiB (2%)<br>
Language : German<br>
Service kind : Complete Main<br>
Default : No<br>
Forced : No<br>
Dialog Normalization : -27 dB<br>
compr : -0.28 dB<br>
mixlevel : 105 dB<br>
roomtyp : Small<br>
dialnorm_Average : -27 dB<br>
dialnorm_Minimum : -27 dB<br>
dialnorm_Maximum : -27 dB<br>
<br>
Audio #5<br>
ID : 6<br>
Format : E-AC-3<br>
Format/Info : Enhanced AC-3<br>
Commercial name : Dolby Digital Plus<br>
Codec ID : A_EAC3<br>
Duration : 2 min 18 s<br>
Bit rate mode : Constant<br>
Bit rate : 256 kb/s<br>
Channel(s) : 6 channels<br>
Channel layout : L R C LFE Ls Rs<br>
Sampling rate : 48.0 kHz<br>
Frame rate : 31.250 FPS (1536 SPF)<br>
Compression mode : Lossy<br>
Stream size : 4.24 MiB (2%)<br>
Title : Latin American<br>
Language : Spanish<br>
Service kind : Complete Main<br>
Default : No<br>
Forced : No<br>
Dialog Normalization : -27 dB<br>
compr : -0.28 dB<br>
mixlevel : 105 dB<br>
roomtyp : Small<br>
dialnorm_Average : -27 dB<br>
dialnorm_Minimum : -27 dB<br>
dialnorm_Maximum : -27 dB<br>
<br>
Audio #6<br>
ID : 7<br>
Format : E-AC-3<br>
Format/Info : Enhanced AC-3<br>
Commercial name : Dolby Digital Plus<br>
Codec ID : A_EAC3<br>
Duration : 2 min 18 s<br>
Bit rate mode : Constant<br>
Bit rate : 256 kb/s<br>
Channel(s) : 6 channels<br>
Channel layout : L R C LFE Ls Rs<br>
Sampling rate : 48.0 kHz<br>
Frame rate : 31.250 FPS (1536 SPF)<br>
Compression mode : Lossy<br>
Stream size : 4.24 MiB (2%)<br>
Title : European<br>
Language : Spanish<br>
Service kind : Complete Main<br>
Default : No<br>
Forced : No<br>
Dialog Normalization : -27 dB<br>
compr : -0.28 dB<br>
mixlevel : 105 dB<br>
roomtyp : Small<br>
dialnorm_Average : -27 dB<br>
dialnorm_Minimum : -27 dB<br>
dialnorm_Maximum : -27 dB<br>
<br>
Audio #7<br>
ID : 8<br>
Format : E-AC-3<br>
Format/Info : Enhanced AC-3<br>
Commercial name : Dolby Digital Plus<br>
Codec ID : A_EAC3<br>
Duration : 2 min 18 s<br>
Bit rate mode : Constant<br>
Bit rate : 256 kb/s<br>
Channel(s) : 6 channels<br>
Channel layout : L R C LFE Ls Rs<br>
Sampling rate : 48.0 kHz<br>
Frame rate : 31.250 FPS (1536 SPF)<br>
Compression mode : Lossy<br>
Stream size : 4.24 MiB (2%)<br>
Language : French<br>
Service kind : Complete Main<br>
Default : No<br>
Forced : No<br>
Dialog Normalization : -27 dB<br>
compr : -0.28 dB<br>
mixlevel : 105 dB<br>
roomtyp : Small<br>
dialnorm_Average : -27 dB<br>
dialnorm_Minimum : -27 dB<br>
dialnorm_Maximum : -27 dB<br>
<br>
Audio #8<br>
ID : 9<br>
Format : E-AC-3<br>
Format/Info : Enhanced AC-3<br>
Commercial name : Dolby Digital Plus<br>
Codec ID : A_EAC3<br>
Duration : 2 min 18 s<br>
Bit rate mode : Constant<br>
Bit rate : 256 kb/s<br>
Channel(s) : 6 channels<br>
Channel layout : L R C LFE Ls Rs<br>
Sampling rate : 48.0 kHz<br>
Frame rate : 31.250 FPS (1536 SPF)<br>
Compression mode : Lossy<br>
Stream size : 4.24 MiB (2%)<br>
Language : Hungarian<br>
Service kind : Complete Main<br>
Default : No<br>
Forced : No<br>
Dialog Normalization : -27 dB<br>
compr : -0.28 dB<br>
mixlevel : 105 dB<br>
roomtyp : Small<br>
dialnorm_Average : -27 dB<br>
dialnorm_Minimum : -27 dB<br>
dialnorm_Maximum : -27 dB<br>
<br>
Audio #9<br>
ID : 10<br>
Format : E-AC-3<br>
Format/Info : Enhanced AC-3<br>
Commercial name : Dolby Digital Plus<br>
Codec ID : A_EAC3<br>
Duration : 2 min 18 s<br>
Bit rate mode : Constant<br>
Bit rate : 256 kb/s<br>
Channel(s) : 6 channels<br>
Channel layout : L R C LFE Ls Rs<br>
Sampling rate : 48.0 kHz<br>
Frame rate : 31.250 FPS (1536 SPF)<br>
Compression mode : Lossy<br>
Stream size : 4.24 MiB (2%)<br>
Language : Italian<br>
Service kind : Complete Main<br>
Default : No<br>
Forced : No<br>
Dialog Normalization : -27 dB<br>
compr : -0.28 dB<br>
mixlevel : 105 dB<br>
roomtyp : Small<br>
dialnorm_Average : -27 dB<br>
dialnorm_Minimum : -27 dB<br>
dialnorm_Maximum : -27 dB<br>
<br>
Audio #10<br>
ID : 11<br>
Format : E-AC-3<br>
Format/Info : Enhanced AC-3<br>
Commercial name : Dolby Digital Plus<br>
Codec ID : A_EAC3<br>
Duration : 2 min 18 s<br>
Bit rate mode : Constant<br>
Bit rate : 256 kb/s<br>
Channel(s) : 6 channels<br>
Channel layout : L R C LFE Ls Rs<br>
Sampling rate : 48.0 kHz<br>
Frame rate : 31.250 FPS (1536 SPF)<br>
Compression mode : Lossy<br>
Stream size : 4.24 MiB (2%)<br>
Language : Polish<br>
Service kind : Complete Main<br>
Default : No<br>
Forced : No<br>
Dialog Normalization : -27 dB<br>
compr : -0.28 dB<br>
mixlevel : 105 dB<br>
roomtyp : Small<br>
dialnorm_Average : -27 dB<br>
dialnorm_Minimum : -27 dB<br>
dialnorm_Maximum : -27 dB<br>
<br>
Audio #11<br>
ID : 12<br>
Format : E-AC-3<br>
Format/Info : Enhanced AC-3<br>
Commercial name : Dolby Digital Plus<br>
Codec ID : A_EAC3<br>
Duration : 2 min 18 s<br>
Bit rate mode : Constant<br>
Bit rate : 256 kb/s<br>
Channel(s) : 6 channels<br>
Channel layout : L R C LFE Ls Rs<br>
Sampling rate : 48.0 kHz<br>
Frame rate : 31.250 FPS (1536 SPF)<br>
Compression mode : Lossy<br>
Stream size : 4.24 MiB (2%)<br>
Title : Brazilian<br>
Language : Portuguese<br>
Service kind : Complete Main<br>
Default : No<br>
Forced : No<br>
Dialog Normalization : -27 dB<br>
compr : -0.28 dB<br>
mixlevel : 105 dB<br>
roomtyp : Small<br>
dialnorm_Average : -27 dB<br>
dialnorm_Minimum : -27 dB<br>
dialnorm_Maximum : -27 dB<br>
<br>
Audio #12<br>
ID : 13<br>
Format : E-AC-3<br>
Format/Info : Enhanced AC-3<br>
Commercial name : Dolby Digital Plus<br>
Codec ID : A_EAC3<br>
Duration : 2 min 18 s<br>
Bit rate mode : Constant<br>
Bit rate : 256 kb/s<br>
Channel(s) : 6 channels<br>
Channel layout : L R C LFE Ls Rs<br>
Sampling rate : 48.0 kHz<br>
Frame rate : 31.250 FPS (1536 SPF)<br>
Compression mode : Lossy<br>
Stream size : 4.24 MiB (2%)<br>
Language : Romanian<br>
Service kind : Complete Main<br>
Default : No<br>
Forced : No<br>
Dialog Normalization : -27 dB<br>
compr : -0.28 dB<br>
mixlevel : 105 dB<br>
roomtyp : Small<br>
dialnorm_Average : -27 dB<br>
dialnorm_Minimum : -27 dB<br>
dialnorm_Maximum : -27 dB<br>
<br>
Audio #13<br>
ID : 14<br>
Format : E-AC-3<br>
Format/Info : Enhanced AC-3<br>
Commercial name : Dolby Digital Plus<br>
Codec ID : A_EAC3<br>
Duration : 2 min 18 s<br>
Bit rate mode : Constant<br>
Bit rate : 256 kb/s<br>
Channel(s) : 6 channels<br>
Channel layout : L R C LFE Ls Rs<br>
Sampling rate : 48.0 kHz<br>
Frame rate : 31.250 FPS (1536 SPF)<br>
Compression mode : Lossy<br>
Stream size : 4.24 MiB (2%)<br>
Language : Slovak<br>
Service kind : Complete Main<br>
Default : No<br>
Forced : No<br>
Dialog Normalization : -27 dB<br>
compr : -0.28 dB<br>
mixlevel : 105 dB<br>
roomtyp : Small<br>
dialnorm_Average : -27 dB<br>
dialnorm_Minimum : -27 dB<br>
dialnorm_Maximum : -27 dB<br>
<br>
Audio #14<br>
ID : 15<br>
Format : E-AC-3<br>
Format/Info : Enhanced AC-3<br>
Commercial name : Dolby Digital Plus<br>
Codec ID : A_EAC3<br>
Duration : 2 min 18 s<br>
Bit rate mode : Constant<br>
Bit rate : 256 kb/s<br>
Channel(s) : 6 channels<br>
Channel layout : L R C LFE Ls Rs<br>
Sampling rate : 48.0 kHz<br>
Frame rate : 31.250 FPS (1536 SPF)<br>
Compression mode : Lossy<br>
Stream size : 4.24 MiB (2%)<br>
Language : Turkish<br>
Service kind : Complete Main<br>
Default : No<br>
Forced : No<br>
Dialog Normalization : -27 dB<br>
compr : -0.28 dB<br>
mixlevel : 105 dB<br>
roomtyp : Small<br>
dialnorm_Average : -27 dB<br>
dialnorm_Minimum : -27 dB<br>
dialnorm_Maximum : -27 dB<br>
<br>
Text #1<br>
ID : 16<br>
Format : UTF-8<br>
Codec ID : S_TEXT/UTF8<br>
Codec ID/Info : UTF-8 Plain Text<br>
Duration : 2 min 14 s<br>
Bit rate : 54 b/s<br>
Frame rate : 0.208 FPS<br>
Count of elements : 28<br>
Stream size : 913 Bytes (0%)<br>
Title : SDH<br>
Language : English<br>
Default : No<br>
Forced : No<br>
<br>
Text #2<br>
ID : 17<br>
Format : UTF-8<br>
Codec ID : S_TEXT/UTF8<br>
Codec ID/Info : UTF-8 Plain Text<br>
Duration : 36 s 703 ms<br>
Bit rate : 10 b/s<br>
Frame rate : 0.082 FPS<br>
Count of elements : 3<br>
Stream size : 46.0 Bytes (0%)<br>
Title : Forced<br>
Language : Czech<br>
Default : No<br>
Forced : Yes<br>
<br>
Text #3<br>
ID : 18<br>
Format : UTF-8<br>
Codec ID : S_TEXT/UTF8<br>
Codec ID/Info : UTF-8 Plain Text<br>
Duration : 2 min 4 s<br>
Bit rate : 48 b/s<br>
Frame rate : 0.201 FPS<br>
Count of elements : 25<br>
Stream size : 752 Bytes (0%)<br>
Language : Czech<br>
Default : No<br>
Forced : No<br>
<br>
Text #4<br>
ID : 19<br>
Format : UTF-8<br>
Codec ID : S_TEXT/UTF8<br>
Codec ID/Info : UTF-8 Plain Text<br>
Duration : 2 min 4 s<br>
Bit rate : 47 b/s<br>
Frame rate : 0.176 FPS<br>
Count of elements : 22<br>
Stream size : 745 Bytes (0%)<br>
Language : Danish<br>
Default : No<br>
Forced : No<br>
<br>
Text #5<br>
ID : 20<br>
Format : UTF-8<br>
Codec ID : S_TEXT/UTF8<br>
Codec ID/Info : UTF-8 Plain Text<br>
Duration : 5 s 839 ms<br>
Bit rate : 35 b/s<br>
Frame rate : 0.343 FPS<br>
Count of elements : 2<br>
Stream size : 26.0 Bytes (0%)<br>
Title : Forced<br>
Language : German<br>
Default : No<br>
Forced : Yes<br>
<br>
Text #6<br>
ID : 21<br>
Format : UTF-8<br>
Codec ID : S_TEXT/UTF8<br>
Codec ID/Info : UTF-8 Plain Text<br>
Duration : 2 min 4 s<br>
Bit rate : 52 b/s<br>
Frame rate : 0.201 FPS<br>
Count of elements : 25<br>
Stream size : 820 Bytes (0%)<br>
Language : German<br>
Default : No<br>
Forced : No<br>
<br>
Text #7<br>
ID : 22<br>
Format : UTF-8<br>
Codec ID : S_TEXT/UTF8<br>
Codec ID/Info : UTF-8 Plain Text<br>
Duration : 2 min 4 s<br>
Bit rate : 92 b/s<br>
Frame rate : 0.201 FPS<br>
Count of elements : 25<br>
Stream size : 1.41 KiB (0%)<br>
Language : Greek<br>
Default : No<br>
Forced : No<br>
<br>
Text #8<br>
ID : 23<br>
Format : UTF-8<br>
Codec ID : S_TEXT/UTF8<br>
Codec ID/Info : UTF-8 Plain Text<br>
Duration : 36 s 703 ms<br>
Bit rate : 11 b/s<br>
Frame rate : 0.082 FPS<br>
Count of elements : 3<br>
Stream size : 53.0 Bytes (0%)<br>
Title : Latin American (Forced)<br>
Language : Spanish<br>
Default : No<br>
Forced : Yes<br>
<br>
Text #9<br>
ID : 24<br>
Format : UTF-8<br>
Codec ID : S_TEXT/UTF8<br>
Codec ID/Info : UTF-8 Plain Text<br>
Duration : 2 min 4 s<br>
Bit rate : 58 b/s<br>
Frame rate : 0.201 FPS<br>
Count of elements : 25<br>
Stream size : 908 Bytes (0%)<br>
Title : Latin American<br>
Language : Spanish<br>
Default : No<br>
Forced : No<br>
<br>
Text #10<br>
ID : 25<br>
Format : UTF-8<br>
Codec ID : S_TEXT/UTF8<br>
Codec ID/Info : UTF-8 Plain Text<br>
Duration : 2 min 14 s<br>
Bit rate : 62 b/s<br>
Frame rate : 0.261 FPS<br>
Count of elements : 35<br>
Stream size : 1.03 KiB (0%)<br>
Title : Latin American (SDH)<br>
Language : Spanish<br>
Default : No<br>
Forced : No<br>
<br>
Text #11<br>
ID : 26<br>
Format : UTF-8<br>
Codec ID : S_TEXT/UTF8<br>
Codec ID/Info : UTF-8 Plain Text<br>
Duration : 36 s 703 ms<br>
Bit rate : 10 b/s<br>
Frame rate : 0.082 FPS<br>
Count of elements : 3<br>
Stream size : 50.0 Bytes (0%)<br>
Title : European (Forced)<br>
Language : Spanish<br>
Default : No<br>
Forced : Yes<br>
<br>
Text #12<br>
ID : 27<br>
Format : UTF-8<br>
Codec ID : S_TEXT/UTF8<br>
Codec ID/Info : UTF-8 Plain Text<br>
Duration : 2 min 4 s<br>
Bit rate : 54 b/s<br>
Frame rate : 0.201 FPS<br>
Count of elements : 25<br>
Stream size : 852 Bytes (0%)<br>
Title : European<br>
Language : Spanish<br>
Default : No<br>
Forced : No<br>
<br>
Text #13<br>
ID : 28<br>
Format : UTF-8<br>
Codec ID : S_TEXT/UTF8<br>
Codec ID/Info : UTF-8 Plain Text<br>
Duration : 2 min 4 s<br>
Bit rate : 48 b/s<br>
Frame rate : 0.193 FPS<br>
Count of elements : 24<br>
Stream size : 762 Bytes (0%)<br>
Language : Finnish<br>
Default : No<br>
Forced : No<br>
<br>
Text #14<br>
ID : 29<br>
Format : UTF-8<br>
Codec ID : S_TEXT/UTF8<br>
Codec ID/Info : UTF-8 Plain Text<br>
Duration : 5 s 839 ms<br>
Bit rate : 35 b/s<br>
Frame rate : 0.343 FPS<br>
Count of elements : 2<br>
Stream size : 26.0 Bytes (0%)<br>
Title : Forced<br>
Language : French<br>
Default : No<br>
Forced : Yes<br>
<br>
Text #15<br>
ID : 30<br>
Format : UTF-8<br>
Codec ID : S_TEXT/UTF8<br>
Codec ID/Info : UTF-8 Plain Text<br>
Duration : 2 min 4 s<br>
Bit rate : 53 b/s<br>
Frame rate : 0.193 FPS<br>
Count of elements : 24<br>
Stream size : 838 Bytes (0%)<br>
Language : French<br>
Default : No<br>
Forced : No<br>
<br>
Text #16<br>
ID : 31<br>
Format : UTF-8<br>
Codec ID : S_TEXT/UTF8<br>
Codec ID/Info : UTF-8 Plain Text<br>
Duration : 36 s 703 ms<br>
Bit rate : 8 b/s<br>
Frame rate : 0.082 FPS<br>
Count of elements : 3<br>
Stream size : 41.0 Bytes (0%)<br>
Title : Forced<br>
Language : Hungarian<br>
Default : No<br>
Forced : Yes<br>
<br>
Text #17<br>
ID : 32<br>
Format : UTF-8<br>
Codec ID : S_TEXT/UTF8<br>
Codec ID/Info : UTF-8 Plain Text<br>
Duration : 2 min 4 s<br>
Bit rate : 49 b/s<br>
Frame rate : 0.201 FPS<br>
Count of elements : 25<br>
Stream size : 770 Bytes (0%)<br>
Language : Hungarian<br>
Default : No<br>
Forced : No<br>
<br>
Text #18<br>
ID : 33<br>
Format : UTF-8<br>
Codec ID : S_TEXT/UTF8<br>
Codec ID/Info : UTF-8 Plain Text<br>
Duration : 5 s 839 ms<br>
Bit rate : 30 b/s<br>
Frame rate : 0.343 FPS<br>
Count of elements : 2<br>
Stream size : 22.0 Bytes (0%)<br>
Title : Forced<br>
Language : Italian<br>
Default : No<br>
Forced : Yes<br>
<br>
Text #19<br>
ID : 34<br>
Format : UTF-8<br>
Codec ID : S_TEXT/UTF8<br>
Codec ID/Info : UTF-8 Plain Text<br>
Duration : 2 min 4 s<br>
Bit rate : 55 b/s<br>
Frame rate : 0.193 FPS<br>
Count of elements : 24<br>
Stream size : 859 Bytes (0%)<br>
Language : Italian<br>
Default : No<br>
Forced : No<br>
<br>
Text #20<br>
ID : 35<br>
Format : UTF-8<br>
Codec ID : S_TEXT/UTF8<br>
Codec ID/Info : UTF-8 Plain Text<br>
Duration : 2 min 4 s<br>
Bit rate : 48 b/s<br>
Frame rate : 0.217 FPS<br>
Count of elements : 27<br>
Stream size : 762 Bytes (0%)<br>
Language : Japanese<br>
Default : No<br>
Forced : No<br>
<br>
Text #21<br>
ID : 36<br>
Format : UTF-8<br>
Codec ID : S_TEXT/UTF8<br>
Codec ID/Info : UTF-8 Plain Text<br>
Duration : 2 min 4 s<br>
Bit rate : 54 b/s<br>
Frame rate : 0.209 FPS<br>
Count of elements : 26<br>
Stream size : 849 Bytes (0%)<br>
Language : Korean<br>
Default : No<br>
Forced : No<br>
<br>
Text #22<br>
ID : 37<br>
Format : UTF-8<br>
Codec ID : S_TEXT/UTF8<br>
Codec ID/Info : UTF-8 Plain Text<br>
Duration : 2 min 4 s<br>
Bit rate : 47 b/s<br>
Frame rate : 0.185 FPS<br>
Count of elements : 23<br>
Stream size : 734 Bytes (0%)<br>
Language : Dutch<br>
Default : No<br>
Forced : No<br>
<br>
Text #23<br>
ID : 38<br>
Format : UTF-8<br>
Codec ID : S_TEXT/UTF8<br>
Codec ID/Info : UTF-8 Plain Text<br>
Duration : 2 min 4 s<br>
Bit rate : 47 b/s<br>
Frame rate : 0.193 FPS<br>
Count of elements : 24<br>
Stream size : 747 Bytes (0%)<br>
Language : Norwegian<br>
Default : No<br>
Forced : No<br>
<br>
Text #24<br>
ID : 39<br>
Format : UTF-8<br>
Codec ID : S_TEXT/UTF8<br>
Codec ID/Info : UTF-8 Plain Text<br>
Duration : 36 s 703 ms<br>
Bit rate : 7 b/s<br>
Frame rate : 0.082 FPS<br>
Count of elements : 3<br>
Stream size : 34.0 Bytes (0%)<br>
Title : Forced<br>
Language : Polish<br>
Default : No<br>
Forced : Yes<br>
<br>
Text #25<br>
ID : 40<br>
Format : UTF-8<br>
Codec ID : S_TEXT/UTF8<br>
Codec ID/Info : UTF-8 Plain Text<br>
Duration : 2 min 4 s<br>
Bit rate : 55 b/s<br>
Frame rate : 0.201 FPS<br>
Count of elements : 25<br>
Stream size : 864 Bytes (0%)<br>
Language : Polish<br>
Default : No<br>
Forced : No<br>
<br>
Text #26<br>
ID : 41<br>
Format : UTF-8<br>
Codec ID : S_TEXT/UTF8<br>
Codec ID/Info : UTF-8 Plain Text<br>
Duration : 2 min 4 s<br>
Bit rate : 56 b/s<br>
Frame rate : 0.201 FPS<br>
Count of elements : 25<br>
Stream size : 881 Bytes (0%)<br>
Title : Brazilian<br>
Language : Portuguese<br>
Default : No<br>
Forced : No<br>
<br>
Text #27<br>
ID : 42<br>
Format : UTF-8<br>
Codec ID : S_TEXT/UTF8<br>
Codec ID/Info : UTF-8 Plain Text<br>
Duration : 2 min 12 s<br>
Bit rate : 59 b/s<br>
Frame rate : 0.241 FPS<br>
Count of elements : 32<br>
Stream size : 989 Bytes (0%)<br>
Title : Brazilian (SDH)<br>
Language : Portuguese<br>
Default : No<br>
Forced : No<br>
<br>
Text #28<br>
ID : 43<br>
Format : UTF-8<br>
Codec ID : S_TEXT/UTF8<br>
Codec ID/Info : UTF-8 Plain Text<br>
Duration : 36 s 703 ms<br>
Bit rate : 9 b/s<br>
Frame rate : 0.082 FPS<br>
Count of elements : 3<br>
Stream size : 42.0 Bytes (0%)<br>
Title : Brazilian (Forced)<br>
Language : Portuguese<br>
Default : No<br>
Forced : Yes<br>
<br>
Text #29<br>
ID : 44<br>
Format : UTF-8<br>
Codec ID : S_TEXT/UTF8<br>
Codec ID/Info : UTF-8 Plain Text<br>
Duration : 2 min 4 s<br>
Bit rate : 56 b/s<br>
Frame rate : 0.201 FPS<br>
Count of elements : 25<br>
Stream size : 873 Bytes (0%)<br>
Title : European<br>
Language : Portuguese<br>
Default : No<br>
Forced : No<br>
<br>
Text #30<br>
ID : 45<br>
Format : UTF-8<br>
Codec ID : S_TEXT/UTF8<br>
Codec ID/Info : UTF-8 Plain Text<br>
Duration : 36 s 703 ms<br>
Bit rate : 11 b/s<br>
Frame rate : 0.082 FPS<br>
Count of elements : 3<br>
Stream size : 54.0 Bytes (0%)<br>
Title : Forced<br>
Language : Romanian<br>
Default : No<br>
Forced : Yes<br>
<br>
Text #31<br>
ID : 46<br>
Format : UTF-8<br>
Codec ID : S_TEXT/UTF8<br>
Codec ID/Info : UTF-8 Plain Text<br>
Duration : 2 min 4 s<br>
Bit rate : 55 b/s<br>
Frame rate : 0.201 FPS<br>
Count of elements : 25<br>
Stream size : 867 Bytes (0%)<br>
Language : Romanian<br>
Default : No<br>
Forced : No<br>
<br>
Text #32<br>
ID : 47<br>
Format : UTF-8<br>
Codec ID : S_TEXT/UTF8<br>
Codec ID/Info : UTF-8 Plain Text<br>
Duration : 1 min 29 s<br>
Bit rate : 5 b/s<br>
Frame rate : 0.044 FPS<br>
Count of elements : 4<br>
Stream size : 60.0 Bytes (0%)<br>
Title : Forced<br>
Language : Slovak<br>
Default : No<br>
Forced : Yes<br>
<br>
Text #33<br>
ID : 48<br>
Format : UTF-8<br>
Codec ID : S_TEXT/UTF8<br>
Codec ID/Info : UTF-8 Plain Text<br>
Duration : 2 min 4 s<br>
Bit rate : 48 b/s<br>
Frame rate : 0.209 FPS<br>
Count of elements : 26<br>
Stream size : 752 Bytes (0%)<br>
Language : Slovak<br>
Default : No<br>
Forced : No<br>
<br>
Text #34<br>
ID : 49<br>
Format : UTF-8<br>
Codec ID : S_TEXT/UTF8<br>
Codec ID/Info : UTF-8 Plain Text<br>
Duration : 2 min 4 s<br>
Bit rate : 48 b/s<br>
Frame rate : 0.161 FPS<br>
Count of elements : 20<br>
Stream size : 763 Bytes (0%)<br>
Language : Swedish<br>
Default : No<br>
Forced : No<br>
<br>
Text #35<br>
ID : 50<br>
Format : UTF-8<br>
Codec ID : S_TEXT/UTF8<br>
Codec ID/Info : UTF-8 Plain Text<br>
Duration : 5 s 839 ms<br>
Bit rate : 23 b/s<br>
Frame rate : 0.343 FPS<br>
Count of elements : 2<br>
Stream size : 17.0 Bytes (0%)<br>
Title : Forced<br>
Language : Turkish<br>
Default : No<br>
Forced : Yes<br>
<br>
Text #36<br>
ID : 51<br>
Format : UTF-8<br>
Codec ID : S_TEXT/UTF8<br>
Codec ID/Info : UTF-8 Plain Text<br>
Duration : 2 min 4 s<br>
Bit rate : 51 b/s<br>
Frame rate : 0.193 FPS<br>
Count of elements : 24<br>
Stream size : 799 Bytes (0%)<br>
Language : Turkish<br>
Default : No<br>
Forced : No<br>
<br>
Text #37<br>
ID : 52<br>
Format : UTF-8<br>
Codec ID : S_TEXT/UTF8<br>
Codec ID/Info : UTF-8 Plain Text<br>
Duration : 2 min 4 s<br>
Bit rate : 48 b/s<br>
Frame rate : 0.209 FPS<br>
Count of elements : 26<br>
Stream size : 749 Bytes (0%)<br>
Title : Traditional, Hong Kong<br>
Language : Chinese<br>
Default : No<br>
Forced : No<br>
<br>
Text #38<br>
ID : 53<br>
Format : UTF-8<br>
Codec ID : S_TEXT/UTF8<br>
Codec ID/Info : UTF-8 Plain Text<br>
Duration : 2 min 4 s<br>
Bit rate : 46 b/s<br>
Frame rate : 0.209 FPS<br>
Count of elements : 26<br>
Stream size : 725 Bytes (0%)<br>
Title : Traditional<br>
Language : Chinese<br>
Default : No<br>
Forced : No</div>
</div><br>
<b>Screenshots</b><br>
<img src="https://i.imgur.com/VyHc0BC.png" class="bbCodeImage LbImage" alt="[​IMG]" data-url="https://i.imgur.com/VyHc0BC.png" style=""><br>
<br>
<b>Download</b><br>
<div class="bbCodeBlock bbCodeVfcHH HiddenContent">
<div class="attribution type">Hidden Content:</div>
<blockquote>You must reply before you can see the hidden data contained here.</blockquote>
</div></div>
<div class="messageTextEndMarker">&nbsp;</div>
</blockquote>
</article>]]></description>
                <author><![CDATA[Samuel]]></author>
                </item>

                </channel></rss>